C:\GBW_MyPrograms\KinderuniversiteitApp\Resultaten\Ellis_1010\Aarde\Aarde_v2.mot
version=1
nRows=6
nColumns=29
inDegrees=yes
endheader
                time	         pelvis_tilt	           pelvis_tx	           pelvis_ty	       hip_flexion_l	       hip_flexion_r	        knee_angle_l	        knee_angle_r	       ankle_angle_l	       ankle_angle_r	    lumbar_extension	hamstrings_r/activation	bifemsh_r/activation	glut_max_r/activation	iliopsoas_r/activation	rect_fem_r/activation	  vasti_r/activation	gastroc_r/activation	 soleus_r/activation	tib_ant_r/activation	hamstrings_l/activation	bifemsh_l/activation	glut_max_l/activation	iliopsoas_l/activation	rect_fem_l/activation	  vasti_l/activation	gastroc_l/activation	 soleus_l/activation	tib_ant_l/activation	
          0.00000000	         -8.02833725	          0.00000000	          0.89027370	         -9.21935750	         30.35940249	        -12.25586486	         -7.66012198	          4.89547796	          8.54914284	          1.94011786	          0.22601992	          0.05000000	          0.05697908	          0.05000000	          0.06333113	          0.07466632	          0.05355631	          0.05000000	          0.23104788	          0.05000000	          0.13253241	          0.05000000	          0.53576265	          0.05000000	          0.05000000	          0.19560568	          0.28213269	          0.05000000	
          0.00962207	         -8.03973467	          0.01585659	          0.88980758	         -8.44288074	         29.50070233	        -15.37297822	         -7.79339237	          3.75895913	          8.22402869	          2.31596657	          0.19765550	          0.05866937	          0.10647104	          0.05000000	          0.05457849	          0.06897953	          0.05961703	          0.05801838	          0.21346850	          0.05000002	          0.11421586	          0.05000000	          0.46171795	          0.05000000	          0.05000000	          0.16857214	          0.24314074	          0.05000000	
          0.01924414	         -8.04875343	          0.03167456	          0.88942319	         -7.43221169	         28.63554626	        -18.82413029	         -8.08554318	          2.22174687	          7.86871123	          2.68610435	          0.17033866	          0.06732266	          0.15177645	          0.05000000	          0.05000000	          0.10728841	          0.05137770	          0.05000000	          0.27551768	          0.05000000	          0.09843074	          0.06160526	          0.39790655	          0.05000000	          0.05000000	          0.14527474	          0.20953764	          0.05000000	
          0.02886621	         -8.06069011	          0.04713586	          0.88934675	         -6.17118289	         27.83948093	        -22.55387433	         -8.42817314	          0.23386881	          7.43032995	          3.01615143	          0.14679712	          0.05801838	          0.20781481	          0.05000000	          0.05000000	          0.19157085	          0.05000000	          0.05000000	          0.29791298	          0.05000000	          0.08482719	          0.05309115	          0.34291415	          0.05849617	          0.05000000	          0.12519715	          0.18057864	          0.25632342	
          0.03848828	         -8.07820651	          0.06198975	          0.88962231	         -4.71519259	         27.13806730	        -26.42071676	         -8.85942418	         -1.46454712	          7.06109832	          3.27747422	          0.12650913	          0.05000000	          0.22127653	          0.05000000	          0.05000000	          0.24414152	          0.05000000	          0.05000000	          0.32230441	          0.05000000	          0.07310371	          0.05000000	          0.29552194	          0.15265501	          0.05000000	          0.10789436	          0.15562190	          0.22089842	
          0.04811035	         -8.10307413	          0.07620325	          0.89029955	         -3.18973085	         26.49389997	        -30.07966406	         -9.31272784	         -1.84901770	          6.79920335	          3.46854953	          0.11387583	          0.05000000	          0.21448281	          0.05000000	          0.05000000	          0.26809693	          0.05000000	          0.05000000	          0.32207287	          0.05000000	          0.08338842	          0.05000000	          0.25467954	          0.21917934	          0.05000000	          0.09298290	          0.13411428	          0.28274678	
